<?xml version="1.0" encoding="UTF-8"?>
<svg id="Layer_2" data-name="Layer 2" xmlns="http://www.w3.org/2000/svg" viewBox="0 0 364.65 118.65">
  <defs>
    <style>
      .cls-1 {
        fill: #fff;
        stroke-width: 0px;
      }

      .cls-2 {
        opacity: .5;
      }

      .cls-2, .cls-3 {
        fill: none;
        stroke: #fff;
        stroke-linecap: round;
        stroke-linejoin: round;
        stroke-width: 12.42px;
      }
    </style>
  </defs>
  <g id="Layer_1-2" data-name="Layer 1">
    <g>
      <g>
        <path class="cls-1" d="m49.78,77.84c0,1.52-.22,2.89-.65,4.14-.44,1.24-1.04,2.3-1.83,3.17s-1.71,1.55-2.78,2.03-2.25.73-3.54.73-2.47-.24-3.54-.73c-1.07-.48-1.99-1.16-2.78-2.03s-1.39-1.93-1.83-3.17c-.44-1.24-.65-2.62-.65-4.14s.22-2.89.65-4.14c.43-1.24,1.04-2.3,1.83-3.19s1.71-1.57,2.78-2.05c1.07-.48,2.25-.73,3.54-.73s2.47.24,3.54.73,1.99,1.17,2.78,2.05,1.39,1.94,1.83,3.19c.43,1.24.65,2.62.65,4.14Zm-2.57,0c0-2.41-.56-4.33-1.68-5.76s-2.63-2.14-4.55-2.14-3.43.71-4.55,2.14-1.68,3.35-1.68,5.76.56,4.32,1.68,5.74c1.12,1.42,2.63,2.12,4.55,2.12s3.43-.71,4.55-2.12c1.12-1.42,1.68-3.33,1.68-5.74Z"/>
        <path class="cls-1" d="m61.6,67.81c.79,0,1.55.06,2.25.19s1.2.25,1.47.37l-.48,2.09c-.2-.1-.6-.21-1.21-.32-.61-.11-1.41-.17-2.4-.17-1.04,0-1.88.08-2.52.22-.63.15-1.05.27-1.25.37v16.88h-2.42v-18.38c.62-.27,1.48-.55,2.57-.84,1.09-.29,2.42-.43,3.99-.43Z"/>
        <path class="cls-1" d="m81.54,85.22c-.15.12-.37.27-.67.43-.3.16-.67.33-1.1.5-.44.17-.93.32-1.49.43-.56.11-1.19.17-1.88.17-1.12,0-2.2-.17-3.24-.52-1.04-.35-1.96-.89-2.74-1.64s-1.41-1.71-1.88-2.89c-.47-1.18-.71-2.62-.71-4.3,0-1.37.21-2.63.63-3.8.42-1.17,1.02-2.18,1.81-3.04s1.74-1.53,2.87-2.01c1.13-.48,2.4-.73,3.82-.73,1.79,0,3.22.12,4.31.35,1.08.24,1.97.47,2.67.69v17.59c0,2.88-.75,4.94-2.24,6.17-1.49,1.23-3.74,1.84-6.75,1.84-1.24,0-2.37-.09-3.37-.28s-1.87-.4-2.59-.65l.48-2.2c.6.27,1.41.51,2.44.71,1.03.2,2.07.3,3.11.3,2.29,0,3.94-.44,4.98-1.32,1.03-.88,1.55-2.39,1.55-4.53v-1.27Zm-.04-14.69c-.42-.12-.97-.24-1.64-.35-.67-.11-1.63-.17-2.87-.17-1.04,0-1.97.18-2.78.54-.81.36-1.5.87-2.07,1.53-.57.66-1.01,1.44-1.3,2.35-.3.91-.45,1.91-.45,3,0,1.27.17,2.35.52,3.26.35.91.8,1.65,1.36,2.22s1.2.99,1.92,1.25c.72.26,1.45.39,2.2.39,1.09,0,2.09-.16,3-.48.91-.32,1.61-.7,2.11-1.12v-12.41Z"/>
        <path class="cls-1" d="m96.18,67.74c1.27,0,2.34.18,3.22.54.88.36,1.6.86,2.14,1.49.55.63.94,1.38,1.19,2.25.25.87.37,1.81.37,2.83v12.15c-.25.07-.61.16-1.08.24-.47.09-1.02.18-1.64.28-.62.1-1.31.18-2.07.24-.76.06-1.53.09-2.33.09-1.02,0-1.96-.11-2.81-.34-.86-.22-1.6-.58-2.24-1.06-.63-.49-1.13-1.11-1.49-1.86-.36-.76-.54-1.68-.54-2.78s.2-1.94.6-2.68c.4-.75.96-1.36,1.68-1.85.72-.48,1.58-.84,2.57-1.06.99-.22,2.07-.34,3.24-.34.35,0,.71.02,1.1.06.38.04.76.09,1.12.15.36.06.67.12.93.19.26.06.44.12.54.17v-1.19c0-.67-.05-1.32-.15-1.96-.1-.63-.32-1.2-.65-1.71-.34-.51-.81-.92-1.42-1.23-.61-.31-1.41-.47-2.4-.47-1.42,0-2.47.1-3.17.3-.7.2-1.21.36-1.53.49l-.34-2.12c.42-.2,1.07-.38,1.96-.56.88-.17,1.94-.26,3.19-.26Zm.22,17.97c.94,0,1.77-.03,2.48-.09.71-.06,1.31-.14,1.81-.24v-6.78c-.27-.12-.71-.25-1.3-.39-.6-.14-1.42-.21-2.46-.21-.6,0-1.22.04-1.86.13-.65.09-1.24.27-1.79.56-.55.29-.99.68-1.34,1.17-.35.5-.52,1.16-.52,1.98,0,.72.12,1.33.35,1.83.24.5.57.89,1.01,1.19.43.3.96.52,1.57.65.61.14,1.3.21,2.07.21Z"/>
        <path class="cls-1" d="m109.3,68.85c.72-.2,1.69-.42,2.91-.67,1.22-.25,2.71-.37,4.47-.37,1.47,0,2.69.21,3.67.63.98.42,1.76,1.02,2.35,1.81.58.78,1,1.72,1.25,2.81.25,1.09.37,2.3.37,3.62v10.77h-2.42v-9.99c0-1.37-.09-2.52-.28-3.47-.19-.94-.5-1.71-.93-2.31-.44-.6-1.01-1.02-1.71-1.29-.71-.26-1.6-.39-2.67-.39-1.14,0-2.13.06-2.96.19-.83.12-1.37.24-1.62.34v16.92h-2.42v-18.6Z"/>
        <path class="cls-1" d="m133.49,62.37c0,.57-.17,1.03-.52,1.36-.35.34-.77.5-1.27.5s-.92-.17-1.27-.5c-.35-.33-.52-.79-.52-1.36s.17-1.02.52-1.36c.35-.33.77-.5,1.27-.5s.92.17,1.27.5c.35.34.52.79.52,1.36Zm-.56,25.08h-2.42v-19.27h2.42v19.27Z"/>
        <path class="cls-1" d="m151.31,70.16c-.58.64-1.33,1.53-2.25,2.67-.92,1.15-1.9,2.42-2.94,3.83s-2.07,2.87-3.09,4.4-1.92,2.98-2.69,4.34h11.31v2.05h-14.09v-1.75c.64-1.22,1.44-2.57,2.39-4.04.95-1.47,1.94-2.92,2.97-4.34s2.03-2.76,3.01-4.01c.98-1.25,1.79-2.28,2.45-3.08h-10.25v-2.05h13.19v1.98Z"/>
        <path class="cls-1" d="m154.85,77.8c0-1.69.24-3.16.73-4.42s1.12-2.3,1.9-3.15,1.68-1.47,2.68-1.88,2.04-.62,3.11-.62c2.36,0,4.24.77,5.65,2.31,1.4,1.54,2.11,3.91,2.11,7.12,0,.2,0,.4-.02.6-.01.2-.03.39-.06.56h-13.53c.07,2.36.66,4.17,1.75,5.44,1.09,1.27,2.83,1.9,5.22,1.9,1.32,0,2.36-.12,3.13-.37.77-.25,1.33-.46,1.68-.63l.45,2.09c-.35.2-1,.43-1.96.71-.96.27-2.08.41-3.37.41-1.69,0-3.13-.25-4.32-.75-1.19-.5-2.17-1.19-2.94-2.09-.77-.89-1.33-1.96-1.68-3.19-.35-1.23-.52-2.58-.52-4.04Zm13.68-1.53c-.05-2.01-.52-3.58-1.42-4.7s-2.16-1.68-3.8-1.68c-.87,0-1.65.17-2.33.52-.68.35-1.28.81-1.79,1.4s-.91,1.26-1.19,2.03c-.29.77-.45,1.58-.5,2.42h11.03Z"/>
        <path class="cls-1" d="m191.75,86.86c-.72.25-1.64.48-2.76.71-1.12.22-2.54.33-4.25.33-1.42,0-2.7-.23-3.86-.69-1.16-.46-2.15-1.12-2.98-1.99-.83-.87-1.48-1.93-1.94-3.17-.46-1.24-.69-2.65-.69-4.21,0-1.47.19-2.81.58-4.04.38-1.23.95-2.29,1.7-3.19s1.66-1.59,2.74-2.09c1.08-.5,2.32-.75,3.71-.75,1.27,0,2.37.18,3.3.54s1.61.7,2.03,1.03v-10.36l2.42-.45v28.33Zm-2.42-15.17c-.22-.17-.5-.36-.84-.56-.34-.2-.73-.39-1.18-.56s-.93-.32-1.45-.43c-.52-.11-1.07-.17-1.64-.17-1.19,0-2.19.21-3,.63-.81.42-1.46.99-1.96,1.7s-.86,1.54-1.08,2.5c-.22.96-.34,1.97-.34,3.04,0,2.53.63,4.48,1.9,5.83,1.27,1.35,2.94,2.03,5.03,2.03,1.19,0,2.15-.06,2.89-.17.73-.11,1.29-.23,1.66-.35v-13.49Z"/>
      </g>
      <g>
        <path class="cls-1" d="m225.61,77.28c0,1.57-.23,2.98-.69,4.25s-1.12,2.35-1.99,3.24c-.87.89-1.94,1.58-3.21,2.07s-2.71.73-4.32.73c-.67,0-1.37-.03-2.11-.09-.73-.06-1.45-.14-2.16-.24-.71-.1-1.39-.22-2.03-.35-.65-.14-1.22-.28-1.71-.43v-27.4l5.55-.89v9.77c.62-.27,1.27-.48,1.94-.63s1.39-.22,2.16-.22c1.39,0,2.62.24,3.69.73,1.07.49,1.96,1.17,2.68,2.07.72.89,1.27,1.97,1.64,3.22.37,1.25.56,2.65.56,4.19Zm-5.67-.15c0-3.58-1.32-5.37-3.95-5.37-.57,0-1.14.08-1.7.22-.56.15-1.01.34-1.36.56v10.1c.27.05.62.09,1.04.13.42.04.88.06,1.38.06,1.51,0,2.66-.52,3.43-1.57.77-1.04,1.16-2.42,1.16-4.14Z"/>
        <path class="cls-1" d="m246.63,86.41c-.94.27-2.16.53-3.65.76-1.49.24-3.06.35-4.7.35s-3.05-.22-4.16-.67c-1.11-.45-1.98-1.07-2.63-1.88-.65-.81-1.11-1.77-1.38-2.89-.27-1.12-.41-2.35-.41-3.69v-10.92h5.55v10.25c0,1.79.24,3.08.71,3.88.47.8,1.35,1.19,2.65,1.19.4,0,.82-.02,1.27-.06.45-.04.84-.08,1.19-.13v-15.13h5.55v18.93Z"/>
        <path class="cls-1" d="m269.14,86.45c-.5.15-1.07.29-1.71.43-.65.14-1.32.25-2.03.35-.71.1-1.43.18-2.16.24-.73.06-1.44.09-2.11.09-1.62,0-3.06-.24-4.32-.71s-2.34-1.15-3.21-2.03c-.87-.88-1.54-1.95-1.99-3.21-.46-1.25-.69-2.66-.69-4.23s.2-3.02.6-4.3c.4-1.28.97-2.37,1.71-3.26.75-.89,1.66-1.58,2.74-2.05,1.08-.47,2.32-.71,3.71-.71.77,0,1.46.07,2.07.22.61.15,1.22.36,1.84.63v-8.87l5.55-.89v28.29Zm-12.56-9.32c0,1.71.38,3.09,1.16,4.14s1.91,1.57,3.43,1.57c.5,0,.96-.02,1.38-.06.42-.04.77-.08,1.04-.13v-10.1c-.35-.22-.8-.41-1.36-.56-.56-.15-1.12-.22-1.7-.22-2.63,0-3.95,1.79-3.95,5.37Z"/>
        <path class="cls-1" d="m291.29,84.62c0,3.21-.81,5.58-2.44,7.14-1.63,1.55-4.14,2.33-7.55,2.33-1.19,0-2.39-.11-3.58-.32-1.19-.21-2.3-.49-3.32-.84l.97-4.66c.87.35,1.78.62,2.74.82.96.2,2.04.3,3.26.3,1.59,0,2.71-.35,3.37-1.04.66-.7.99-1.59.99-2.68v-.71c-.6.27-1.21.48-1.85.62-.63.14-1.32.21-2.07.21-2.71,0-4.78-.8-6.22-2.4-1.44-1.6-2.16-3.84-2.16-6.73,0-1.44.22-2.75.67-3.93.45-1.18,1.1-2.19,1.96-3.04s1.91-1.5,3.15-1.96c1.24-.46,2.65-.69,4.21-.69.67,0,1.36.03,2.07.09.71.06,1.41.14,2.11.24.7.1,1.36.22,1.99.35s1.2.28,1.7.43v16.47Zm-12.19-7.98c0,3.11,1.25,4.66,3.76,4.66.57,0,1.11-.07,1.6-.22s.92-.32,1.27-.52v-8.87c-.27-.05-.6-.09-.97-.13-.37-.04-.81-.06-1.3-.06-1.47,0-2.56.48-3.28,1.45-.72.97-1.08,2.2-1.08,3.69Z"/>
        <path class="cls-1" d="m295.57,77.43c0-1.74.27-3.26.8-4.57s1.24-2.39,2.11-3.26,1.87-1.53,3-1.97,2.29-.67,3.49-.67c2.78,0,4.98.85,6.6,2.55s2.42,4.21,2.42,7.51c0,.32-.01.68-.04,1.06-.03.38-.05.73-.07,1.02h-12.6c.12,1.14.66,2.05,1.6,2.72s2.21,1.01,3.8,1.01c1.02,0,2.02-.09,3-.28.98-.19,1.78-.42,2.4-.69l.75,4.51c-.3.15-.7.3-1.19.45-.5.15-1.05.28-1.66.39-.61.11-1.26.21-1.96.28-.7.07-1.39.11-2.09.11-1.76,0-3.3-.26-4.6-.78-1.3-.52-2.38-1.24-3.24-2.14-.86-.91-1.49-1.98-1.9-3.22s-.61-2.58-.61-4.03Zm13.04-2.12c-.03-.47-.11-.93-.24-1.38s-.35-.84-.63-1.19c-.29-.35-.65-.63-1.08-.86s-.98-.34-1.62-.34-1.16.11-1.6.32-.82.49-1.12.84c-.3.35-.53.75-.69,1.21-.16.46-.28.93-.35,1.4h7.34Z"/>
        <path class="cls-1" d="m318.08,62.59l5.55-.89v5.78h6.67v4.62h-6.67v6.9c0,1.17.21,2.1.62,2.79.41.7,1.24,1.04,2.48,1.04.6,0,1.21-.06,1.84-.17.63-.11,1.21-.27,1.73-.47l.78,4.32c-.67.27-1.42.51-2.24.71-.82.2-1.83.3-3.02.3-1.52,0-2.77-.21-3.76-.62-.99-.41-1.79-.98-2.39-1.71-.6-.73-1.01-1.62-1.25-2.67-.24-1.04-.35-2.2-.35-3.47v-16.47Z"/>
      </g>
      <g>
        <rect class="cls-2" x="145.83" y="-100.17" width="72.99" height="352.23" transform="translate(106.38 258.27) rotate(-90)"/>
        <polyline class="cls-3" points="6.21 39.45 6.52 6.21 90.39 6.21 129.52 39.76"/>
      </g>
    </g>
  </g>
</svg>